<svg width="26" height="24" viewBox="0 0 26 24" fill="none" xmlns="http://www.w3.org/2000/svg">
<path d="M3.53174 7.44L13.0127 12.55L22.4291 7.46997" stroke="#46B22B" stroke-width="1.5" stroke-linecap="round" stroke-linejoin="round"/>
<path d="M13.0127 21.61V12.54" stroke="#46B22B" stroke-width="1.5" stroke-linecap="round" stroke-linejoin="round"/>
<path d="M23.3312 9.17V14.83C23.3312 14.88 23.3312 14.92 23.3204 14.97C22.5688 14.36 21.6025 14 20.5288 14C19.5195 14 18.5853 14.33 17.8445 14.88C16.8567 15.61 16.2339 16.74 16.2339 18C16.2339 18.75 16.4594 19.46 16.8566 20.06C16.9533 20.22 17.0714 20.37 17.2002 20.51L15.2354 21.52C14.0113 22.16 12.0142 22.16 10.7901 21.52L5.0565 18.56C3.7573 17.89 2.69434 16.21 2.69434 14.83V9.17C2.69434 7.79 3.7573 6.11002 5.0565 5.44002L10.7901 2.48C12.0142 1.84 14.0113 1.84 15.2354 2.48L20.969 5.44002C22.2682 6.11002 23.3312 7.79 23.3312 9.17Z" stroke="#46B22B" stroke-width="1.5" stroke-linecap="round" stroke-linejoin="round"/>
<path d="M24.8236 18C24.8236 19.2 24.2546 20.27 23.3634 21C22.601 21.62 21.6132 22 20.5288 22C18.1558 22 16.2339 20.21 16.2339 18C16.2339 16.74 16.8566 15.61 17.8445 14.88C18.5853 14.33 19.5195 14 20.5288 14C22.9017 14 24.8236 15.79 24.8236 18Z" stroke="#46B22B" stroke-width="1.5" stroke-miterlimit="10" stroke-linecap="round" stroke-linejoin="round"/>
<path d="M20.7972 16.75V18.25L19.4551 19" stroke="#46B22B" stroke-width="1.5" stroke-miterlimit="10" stroke-linecap="round" stroke-linejoin="round"/>
</svg>
