<svg width="27" height="24" viewBox="0 0 27 24" fill="none" xmlns="http://www.w3.org/2000/svg">
<path d="M10.7144 14.7L12.3249 16.2L16.6198 12.2" stroke="#1393FF" stroke-width="1.5" stroke-linecap="round" stroke-linejoin="round"/>
<path d="M11.4553 6H15.7502C17.8976 6 17.8976 5 17.8976 4C17.8976 2 16.8239 2 15.7502 2H11.4553C10.3816 2 9.30786 2 9.30786 4C9.30786 6 10.3816 6 11.4553 6Z" stroke="#1393FF" stroke-width="1.5" stroke-miterlimit="10" stroke-linecap="round" stroke-linejoin="round"/>
<path d="M17.8975 4.01999C21.473 4.19999 23.2661 5.42999 23.2661 9.99999V16C23.2661 20 22.1924 22 16.8238 22H10.3815C5.01293 22 3.93921 20 3.93921 16V9.99999C3.93921 5.43999 5.73232 4.19999 9.3078 4.01999" stroke="#1393FF" stroke-width="1.5" stroke-miterlimit="10" stroke-linecap="round" stroke-linejoin="round"/>
</svg>
